<?xml version="1.0" standalone="no"?>
<!DOCTYPE svg PUBLIC "-//W3C//DTD SVG 20010904//EN"
 "http://www.w3.org/TR/2001/REC-SVG-20010904/DTD/svg10.dtd">
<svg version="1.0" xmlns="http://www.w3.org/2000/svg"
 width="496.000000pt" height="496.000000pt" viewBox="0 0 496.000000 496.000000"
 preserveAspectRatio="xMidYMid meet">
<metadata>
Created by potrace 1.14, written by Peter Selinger 2001-2017
</metadata>
<g transform="translate(0.000000,496.000000) scale(0.100000,-0.100000)"
fill="#000000" stroke="none">
<path d="M2235 4890 c-616 -64 -1184 -359 -1583 -825 -541 -631 -712 -1506
-451 -2300 322 -977 1239 -1635 2279 -1635 708 0 1372 303 1828 835 617 719
747 1748 328 2600 -332 674 -940 1140 -1688 1291 -68 13 -141 26 -163 29 -103
9 -469 13 -550 5z m373 -171 c847 -93 1504 -755 1593 -1606 40 -392 -137 -892
-440 -1238 -169 -193 -435 -382 -671 -475 -60 -24 -85 -17 -124 34 -24 32 -31
58 -51 189 -46 305 -177 570 -327 663 -63 38 -180 73 -249 74 -60 0 -140 -30
-199 -75 -74 -57 -110 -98 -186 -217 -72 -111 -81 -153 -42 -195 19 -21 30
-23 109 -23 91 0 128 -10 167 -44 30 -27 31 -116 1 -165 -36 -59 -125 -166
-180 -215 -66 -59 -75 -59 -237 19 -570 274 -947 811 -1013 1443 -40 391 137
891 440 1237 241 277 602 487 969 565 180 38 292 46 440 29z m-1676 -666
c-141 -211 -242 -474 -286 -743 -14 -84 -26 -171 -25 -178 1 -4 1 -11 0 -17
-9 -49 4 -325 19 -395 5 -25 19 -91 30 -147 73 -364 286 -731 565 -974 147
-129 366 -262 528 -324 l59 -22 -24 -29 c-46 -56 -98 -150 -129 -234 -28 -78
-31 -95 -32 -220 0 -74 4 -157 11 -185 6 -27 14 -65 18 -83 3 -18 10 -35 15
-38 5 -3 9 -11 9 -19 0 -31 -262 98 -445 220 -575 382 -939 1002 -997 1697
-40 492 128 1043 451 1472 68 91 276 316 291 316 4 0 -22 -44 -58 -97z m3153
-15 c369 -388 582 -858 627 -1386 42 -492 -129 -1048 -452 -1476 -259 -344
-648 -627 -1048 -765 -382 -131 -760 -161 -1132 -90 -113 22 -144 34 -134 51
4 7 3 8 -4 4 -17 -10 -98 71 -127 126 -28 53 -41 108 -50 216 -6 59 -2 87 25
188 38 140 78 212 165 295 33 31 99 94 147 139 99 94 188 205 218 272 21 48
27 125 15 200 -6 39 -14 53 -55 87 -57 48 -135 81 -191 81 l-40 0 40 58 c44
66 123 147 161 167 46 24 94 27 164 11 117 -28 181 -85 254 -231 69 -139 100
-241 124 -418 12 -89 27 -166 33 -172 7 -5 18 -21 25 -35 23 -44 65 -90 80
-90 9 0 20 -4 25 -8 22 -18 89 -34 119 -28 48 9 173 59 273 110 537 269 906
804 972 1408 14 125 14 371 0 496 -31 286 -134 571 -291 805 -36 53 -62 97
-58 97 5 0 56 -51 115 -112z"/>
<path d="M2330 4311 c0 -11 5 -23 10 -26 34 -21 -12 -67 -180 -180 -109 -73
-222 -135 -365 -201 -48 -23 -26 -32 39 -15 22 5 55 12 71 15 17 3 79 21 140
40 63 20 114 31 119 26 8 -8 15 -230 8 -263 -3 -9 -16 -20 -31 -23 -23 -6
-353 -96 -475 -129 -26 -8 -50 -16 -53 -19 -11 -11 10 -25 57 -36 46 -11 58
-10 133 13 72 22 140 41 187 53 8 2 48 12 88 23 39 10 72 17 72 15 0 -3 -17
-31 -37 -64 -21 -32 -74 -116 -118 -185 -82 -131 -264 -366 -372 -483 -7 -7
-13 -18 -13 -24 0 -31 164 113 391 343 l176 179 -3 -53 c-3 -59 -14 -254 -19
-337 -6 -86 -16 -182 -23 -215 -20 -98 16 -221 78 -265 75 -54 77 -37 79 638
1 140 5 242 10 240 9 -3 126 -105 163 -141 31 -29 81 -57 106 -57 41 0 48 66
16 136 -23 49 -55 73 -104 78 -25 3 -58 7 -75 10 -16 2 -48 7 -71 11 l-41 6 2
57 c2 31 3 80 4 109 1 48 3 52 29 57 61 14 81 16 162 22 149 9 210 25 210 54
0 22 -53 53 -110 65 -73 16 -108 12 -151 -16 -36 -25 -123 -49 -134 -37 -3 2
-1 36 4 74 14 112 9 143 -30 178 l-34 31 120 53 c66 30 130 56 143 59 27 6 29
38 5 73 -39 56 -138 130 -174 130 -5 0 -9 -9 -9 -19z"/>
<path d="M3335 3655 c-60 -23 -526 -127 -571 -127 -13 0 -42 12 -64 27 -35 24
-44 26 -65 17 -31 -14 -31 -27 -1 -71 16 -22 33 -74 46 -136 12 -55 23 -109
26 -120 2 -11 6 -31 9 -45 3 -14 7 -36 10 -50 3 -14 8 -38 10 -55 21 -116 68
-205 110 -205 17 0 47 29 40 39 -10 18 35 40 115 58 66 14 125 18 265 17 208
-1 221 4 170 64 l-25 30 65 180 c36 99 65 184 65 190 0 6 16 25 35 43 42 40
43 51 8 70 -15 8 -62 33 -103 56 -41 24 -77 43 -80 42 -3 0 -32 -11 -65 -24z
m15 -108 c0 -7 -4 -38 -10 -68 -5 -30 -12 -67 -15 -84 -5 -30 -10 -58 -20
-105 -3 -14 -7 -43 -11 -65 -10 -74 -24 -114 -42 -119 -65 -18 -353 -58 -361
-50 -5 5 -29 97 -53 205 l-44 197 85 17 c47 9 97 19 111 22 14 2 41 8 60 13
34 9 59 14 130 25 20 3 49 10 65 14 47 14 105 13 105 -2z"/>
<path d="M2293 2123 c-16 -6 -17 -65 -1 -81 7 -7 21 -12 33 -12 28 0 45 18 45
48 0 41 -36 62 -77 45z"/>
</g>
</svg>
